<svg width="1600" height="900" viewBox="0 0 1600 900" fill="none" xmlns="http://www.w3.org/2000/svg">
  <defs>
    <linearGradient id="cardBg" x1="88" y1="54" x2="1498" y2="846" gradientUnits="userSpaceOnUse">
      <stop stop-color="#08121D"/>
      <stop offset="0.56" stop-color="#0D2434"/>
      <stop offset="1" stop-color="#13405A"/>
    </linearGradient>
    <linearGradient id="cardAccent" x1="145" y1="151" x2="1263" y2="773" gradientUnits="userSpaceOnUse">
      <stop stop-color="#6BE3D8"/>
      <stop offset="1" stop-color="#A7E574"/>
    </linearGradient>
    <linearGradient id="softLine" x1="1000" y1="115" x2="1452" y2="820" gradientUnits="userSpaceOnUse">
      <stop stop-color="#D8F8F1" stop-opacity="0.72"/>
      <stop offset="1" stop-color="#D8F8F1" stop-opacity="0.04"/>
    </linearGradient>
    <filter id="panelShadow" x="30" y="20" width="1540" height="860" filterUnits="userSpaceOnUse" color-interpolation-filters="sRGB">
      <feDropShadow dx="0" dy="16" stdDeviation="26" flood-color="#021019" flood-opacity="0.35"/>
    </filter>
  </defs>

  <rect width="1600" height="900" rx="48" fill="#EAF1F4"/>
  <g filter="url(#panelShadow)">
    <rect x="52" y="42" width="1496" height="816" rx="42" fill="url(#cardBg)"/>
  </g>

  <circle cx="1315" cy="155" r="246" fill="#123F53" fill-opacity="0.28"/>
  <circle cx="1450" cy="362" r="214" fill="#0B2D43" fill-opacity="0.46"/>
  <path d="M1008 118C1130 182 1245 315 1311 456C1358 555 1393 672 1476 785" stroke="url(#softLine)" stroke-width="2" stroke-dasharray="10 16"/>
  <path d="M1062 154L1090 95L1140 174L1053 190L1062 154Z" fill="#A7E574" fill-opacity="0.96"/>

  <rect x="110" y="112" width="122" height="122" rx="28" fill="#08131D" stroke="url(#cardAccent)" stroke-width="2"/>
  <path d="M144 145H191C243.47 145 286 187.53 286 240C286 292.47 243.47 335 191 335H144V145Z" transform="translate(-34 -34)" fill="none" stroke="#F1FAFF" stroke-width="18" stroke-linejoin="round"/>
  <path d="M212 154C235 162 255 178 268 200" stroke="url(#cardAccent)" stroke-width="8" stroke-linecap="round"/>
  <path d="M213 223C241 219 264 208 282 191" stroke="#D7FFF1" stroke-opacity="0.88" stroke-width="4" stroke-linecap="round" stroke-dasharray="6 12"/>
  <path d="M279 188L286 166L304 197L271 204L279 188Z" fill="#A7E574"/>

  <text x="110" y="348" fill="#F7FBFE" font-family="Georgia, 'Times New Roman', serif" font-size="62" letter-spacing="1">Deepargh Chatterjee</text>
  <text x="112" y="402" fill="#9DD7D0" font-family="Arial, Helvetica, sans-serif" font-size="28" letter-spacing="4">SOFTWARE DEVELOPMENT ENGINEER</text>
  <text x="112" y="463" fill="#D4E4EE" font-family="Arial, Helvetica, sans-serif" font-size="27">Reliable systems, frontend architecture, and user-focused product engineering</text>

  <rect x="110" y="525" width="348" height="58" rx="29" fill="#102435"/>
  <text x="145" y="563" fill="#6BE3D8" font-family="Arial, Helvetica, sans-serif" font-size="24" letter-spacing="2">AMADEUS SOFTWARE LABS</text>

  <rect x="110" y="617" width="184" height="48" rx="24" fill="#14344B"/>
  <text x="137" y="649" fill="#F2FBFF" font-family="Arial, Helvetica, sans-serif" font-size="22">React + UI</text>

  <rect x="312" y="617" width="200" height="48" rx="24" fill="#14344B"/>
  <text x="337" y="649" fill="#F2FBFF" font-family="Arial, Helvetica, sans-serif" font-size="22">System Reliability</text>

  <rect x="530" y="617" width="166" height="48" rx="24" fill="#14344B"/>
  <text x="559" y="649" fill="#F2FBFF" font-family="Arial, Helvetica, sans-serif" font-size="22">Performance</text>

  <rect x="714" y="617" width="170" height="48" rx="24" fill="#14344B"/>
  <text x="741" y="649" fill="#F2FBFF" font-family="Arial, Helvetica, sans-serif" font-size="22">Mentorship</text>

  <line x1="110" y1="725" x2="744" y2="725" stroke="url(#cardAccent)" stroke-opacity="0.65" stroke-width="2"/>

  <text x="110" y="781" fill="#A6BAC7" font-family="Arial, Helvetica, sans-serif" font-size="22" letter-spacing="3">FRONTEND  .  TEST ARCHITECTURE  .  NODE.JS  .  ACCESSIBILITY  .  GEN AI</text>
  <text x="110" y="824" fill="#7DA2B6" font-family="Arial, Helvetica, sans-serif" font-size="18" letter-spacing="4">AIRLINE TECH  |  SCALABLE UI SYSTEMS  |  CLEAN ENGINEERING</text>

  <rect x="1048" y="560" width="352" height="186" rx="30" fill="#0A1B28" fill-opacity="0.6" stroke="#6BE3D8" stroke-opacity="0.22"/>
  <text x="1090" y="618" fill="#98E1DA" font-family="Arial, Helvetica, sans-serif" font-size="20" letter-spacing="3">PROFILE</text>
  <text x="1090" y="664" fill="#F5FBFF" font-family="Arial, Helvetica, sans-serif" font-size="28">Builds resilient products</text>
  <text x="1090" y="706" fill="#D7E5EF" font-family="Arial, Helvetica, sans-serif" font-size="24">with a designer’s eye and</text>
  <text x="1090" y="744" fill="#D7E5EF" font-family="Arial, Helvetica, sans-serif" font-size="24">an engineer’s discipline.</text>
</svg>
